# xmcd
#
# Track frame offsets: 
#        150
#        17190
#        33840
#        50115
#        67285
#        82100
#        98357
#        114632
#        133050
#        150390
#        167380
#        186175
#        201775
#        221950
#        243100
#        266575
#        285550
#        304975
#
# Disc length: 4363 seconds
#
# Revision: 2
# Processed by: cddbd v1.5.2PL0 Copyright (c) Steve Scherf et al.
# Submitted via: ExactAudioCopy v1.0b4
#
DISCID=03110912
DTITLE=テレサ・テン - テレサ・テン ゴールデンベスト
DYEAR=2003
DGENRE=歌謡曲
TTITLE0=空港
TTITLE1=雪化粧
TTITLE2=女の生きがい
TTITLE3=夜の乗客
TTITLE4=夜のフェリーボート
TTITLE5=ふるさとはどこですか
TTITLE6=あなたと生きる
TTITLE7=東京夜景
TTITLE8=つぐない
TTITLE9=愛人
TTITLE10=時の流れに身をまかせ
TTITLE11=スキャンダル
TTITLE12=別れの予感
TTITLE13=恋人たちの神話
TTITLE14=香港 ～Hong Kong～
TTITLE15=悲しい自由
TTITLE16=悲しみと踊らせて
TTITLE17=あなたと共に生きてゆく
EXTD=YEAR: 2003 ID3G: 13
EXTT0=
EXTT1=
EXTT2=
EXTT3=
EXTT4=
EXTT5=
EXTT6=
EXTT7=
EXTT8=
EXTT9=
EXTT10=
EXTT11=
EXTT12=
EXTT13=
EXTT14=
EXTT15=
EXTT16=
EXTT17=
PLAYORDER=
